<svg clip-rule="evenodd" stroke-linecap="round" stroke-linejoin="round" stroke-miterlimit="10" viewBox="0 0 4096 2048" xmlns="http://www.w3.org/2000/svg"><g><path d="m2477.67 570.512-109.07 25.608-47.42 46.474-27.51 63.546 18.97 49.32-46.47 36.041-34.15 55.959-5.69 51.216 43.63 66.392 40.78 37.942-8.53 51.21 51.21 71.14 87.26 21.81 71.13-25.61 1.9 43.63 23.71 52.17 116.66 49.32 82.52-10.44 82.51 55.01 112.87 83.47 44.58 73.03 36.04 74.92 13.28 58.81 40.78 37.94 70.18-14.23 29.41-100.54 5.69-84.41 126.14-6.64 112.87-60.7 55.95-88.2 18.03-82.52 79.67-64.49 3.79-87.26 46.47-128.043-23.71-92.948-65.44-36.041-7.59-74.928-44.58-63.546-57.85-37.938-75.88-9.484-30.35-52.165-62.6-63.547-91.05-19.917-66.39 8.536-25.61 18.969-122.35-91.051-100.53 12.33-95.8 55.01-107.17-14.227-110.97 35.093z" fill="#ffc9c9" fill-rule="evenodd"/><path d="m3036.83 1195.64-87.69 90.17 100.92 95.97 142.3 55.43 109.2-4.14 86.87-40.54 60.39-81.9 34.75-101.76-87.7-8.27-91-34.75-47.98 46.33-93.49 33.1-91-17.38z" fill="#ef8297" fill-rule="evenodd"/><path d="m2829.18 1307.32 97.62 91.83 69.49 106.72 25.65 106.72 63.7 38.06 79.42-51.29 9.1-160.5-140.64-57.91-95.97-93.48z" fill="#ffafb0" fill-rule="evenodd"/><g fill="none" stroke="#000" stroke-linecap="round" stroke-linejoin="round" stroke-width="32.2415"><path d="m2472.14 568.16s-118.94 9.815-166.72 92.806c-32.89 57.12 24.5 145.444 24.5 145.444"/><path d="m2296.57 761.157s-75.32 55.971-75.02 115.515 76.22 122.661 76.22 122.661"/><path d="m2348.48 949.226s-76.61 78.894-43.06 126.704c91.79 130.77 200.21 46.16 200.21 46.16"/><path d="m2468.96 624.444s4.07-107.246 84.18-139.521c174.78-70.417 245.84 37.372 245.84 37.372"/><path d="m2750.53 472.53s95.31-75.614 173.56-68.084 139.43 98.205 139.43 98.205"/><path d="m3014.62 598.094s33.53-123.445 111.92-129.518c178.56-13.832 202.45 138.32 202.45 138.32"/><path d="m3227.13 659.709s72.95-61.441 154.67-51.555c155.92 18.861 149.64 177.3 149.64 177.3"/><path d="m3461.02 790.484s104.43-12.864 138.32 47.783c47.78 85.507-31.44 208.733-31.44 208.733"/><path d="m3525.15 989.162s80.48 74.188 31.44 153.408c-83.88 135.5-251.49 20.12-251.49 20.12"/><path d="m3484.91 1212.99s-30.43 170.42-157.18 215.02c-203.71 71.68-373.46-129.52-373.46-129.52"/><path d="m3249.77 1045.75s79.85 19.49 124.49-8.81c44.63-28.29 54.07-104.364 54.07-104.364"/><path d="m3003.31 1137.54s35.36 97.19 118.2 105.63c209.99 21.37 206.22-181.08 206.22-181.08"/><path d="m3029.71 1204.19s-65.07 90.85-139.57 104.36c-74.51 13.52-158.44-50.29-158.44-50.29"/><path d="m2788.28 1189.1s-54.54 147.32-230.11 50.29c-143.35-79.21 31.44-233.88 31.44-233.88"/><path d="m2594.63 1008.02s-32.69-118.197 61.62-177.297c58.37-36.577 153.41 5.029 153.41 5.029"/><path d="m2813.43 838.267s6.81-75.416 75.45-95.566c137.06-40.239 207.48 52.813 207.48 52.813"/><path d="m2515.42 1075.93s-70.42-53.13-74.19-110.66c-3.78-57.528 59.1-119.458 59.1-119.458s-31.44-70.417 13.83-114.428c31.61-30.737 103.11-17.605 103.11-17.605s15.09-64.758 55.33-79.219 105.62 21.377 105.62 21.377"/><path d="m2750.56 1030.66s74.19 53.75 132.03 36.46 99.34-105.622 99.34-105.622 80.79 39.922 134.55 22.634c53.75-17.29 80.47-91.794 80.47-91.794s98.91-4.14 113.18-106.884c12.57-90.536-106.89-134.547-106.89-134.547s-41.49-71.675-128.26-66.645c-60.52 3.508-113.17 44.011-113.17 44.011"/><path d="m3172.25 1444.47-11.76 154.56s-31.12 42.75-65.39 45.26c-34.26 2.52-71.67-35.2-71.67-35.2s-16.04-111.92-81.74-193.65c-65.7-81.74-186.36-144.09-186.36-144.09"/></g></g><g fill-rule="evenodd"><path d="m1061.29 944.475 5.38 343.185s5.08 12.27 14.47 18.97c9.39 6.69 23.08 7.82 23.08 7.82l805.43-4s9.53 1.2 16.91 5.55c7.38 4.36 12.62 11.87 12.62 11.87l3.19 182.09s4.42 11.83 13.83 18.54c9.41 6.72 11.35 6.72 23.81 8.31 12.45 1.59 26.01-1.94 26.01-1.94l601.51-414.79s4.06-7.24 3.96-14.07c-.1-6.84-4.36-13.28-4.36-13.28l-607.08-402.477s-10.81-6.773-25.44-5.377-21.61 3.981-33.09 10.961-12.82 16.959-12.82 16.959l3.6 176.501s-3.18 9.584-9.8 15.417c-6.61 5.834-16.66 7.917-16.66 7.917l-808.17 6.206s-12.94 3.779-22.03 10.189c-9.1 6.409-14.35 15.449-14.35 15.449z" stroke="#000" stroke-linecap="round" stroke-linejoin="round" stroke-width="32.2415"/><path d="m1061.17 879.149 5.38 343.181s5.09 12.27 14.47 18.97c9.39 6.7 23.08 7.82 23.08 7.82l805.43-4s9.53 1.2 16.92 5.56c7.38 4.35 12.62 11.86 12.62 11.86l3.18 182.09s4.43 11.84 13.84 18.55 11.35 6.71 23.8 8.3c12.46 1.59 26.02-1.94 26.02-1.94l601.5-414.79s4.06-7.23 3.97-14.07c-.1-6.84-4.36-13.28-4.36-13.28l-607.08-402.473s-10.81-6.773-25.44-5.377c-14.64 1.396-21.62 3.981-33.09 10.961-11.48 6.98-12.83 16.959-12.83 16.959l3.6 176.502s-3.18 9.583-9.79 15.417c-6.62 5.833-16.67 7.916-16.67 7.916l-808.17 6.206s-12.93 3.779-22.03 10.189c-9.09 6.409-14.35 15.449-14.35 15.449z" fill="#fefefe" stroke="#000" stroke-linecap="round" stroke-linejoin="round" stroke-width="32.2415"/><path d="m2602 1040.2h25.36v69.14h-25.36z"/></g><path d="m2604.78 998.626-98.75 79.544 5.48 115.21 108.35 78.87 82.29-180.36z" fill="#ffc9c9" fill-rule="evenodd"/><path d="m2594.49 1009.6s-179.03 134-50.06 219.44c164.58 109.04 243.13-36.51 243.13-36.51" fill="none" stroke="#000" stroke-linecap="round" stroke-linejoin="round" stroke-width="32.2415"/></svg>